<?xml version="1.0" encoding="UTF-8"?>
<svg id="logo" xmlns="http://www.w3.org/2000/svg" viewBox="0 0 2000 2000">
  <defs>
    <style>
      .cls-1 {
        fill: #f1f2f2;
      }
    </style>
  </defs>
  <path class="cls-1" d="M997.9,1078.24c-43.27,0-78.47-35.2-78.47-78.47s35.2-78.47,78.47-78.47,78.47,35.2,78.47,78.47-35.2,78.47-78.47,78.47ZM997.9,925.3c-41.06,0-74.47,33.41-74.47,74.47s33.41,74.47,74.47,74.47,74.47-33.41,74.47-74.47-33.41-74.47-74.47-74.47Z"/>
  <path class="cls-1" d="M771.36,1106.55c-5.88,0-10.71-.5-14.39-1.49-4.91-1.32-8.01-3.57-9.2-6.69-1.2-3.12-.4-6.86,2.38-11.12,2.45-3.76,6.54-8.08,12.14-12.83,5.42-4.6,12.35-9.68,20.59-15.1,8.13-5.35,17.62-11.09,28.21-17.05,10.58-5.96,22.33-12.19,34.93-18.53,12.72-6.39,26.43-12.95,40.74-19.49l4.64-2.12c10.78-4.93,15.7-7.19,29.79-13.07,1.02-.43,2.19.06,2.62,1.07.43,1.02-.05,2.19-1.07,2.62-14.02,5.86-18.92,8.11-29.67,13.02l-4.64,2.12c-14.27,6.52-27.93,13.05-40.6,19.42-12.55,6.31-24.24,12.51-34.76,18.44-10.51,5.92-19.92,11.61-27.97,16.91-8.1,5.33-14.9,10.31-20.2,14.81-5.31,4.5-9.14,8.53-11.38,11.96-2.04,3.13-2.71,5.65-2,7.51.71,1.86,2.9,3.29,6.5,4.25,3.96,1.06,9.5,1.5,16.46,1.3,6.94-.2,15.33-1.03,24.92-2.47,9.54-1.44,20.34-3.49,32.11-6.1,11.78-2.61,24.63-5.81,38.19-9.5,13.68-3.72,28.21-7.99,43.19-12.67,15.25-4.77,31.11-10.02,47.13-15.6,16.45-5.73,33.28-11.89,50.02-18.3,16.74-6.41,33.38-13.07,49.45-19.79,15.66-6.55,30.97-13.24,45.5-19.87,14.27-6.52,27.93-13.05,40.6-19.42,12.55-6.31,24.25-12.51,34.76-18.44,10.5-5.92,19.91-11.61,27.97-16.91,8.11-5.34,14.9-10.32,20.2-14.81,5.31-4.5,9.14-8.53,11.38-11.97,2.04-3.12,2.71-5.65,2-7.51-.71-1.86-2.9-3.29-6.5-4.25-3.96-1.06-9.5-1.5-16.46-1.3-6.94.2-15.33,1.03-24.92,2.47-9.54,1.44-20.34,3.49-32.11,6.1-11.78,2.61-24.63,5.81-38.19,9.5-1.06.29-2.17-.34-2.46-1.4-.29-1.07.34-2.17,1.4-2.46,13.62-3.71,26.53-6.92,38.37-9.55,11.86-2.63,22.75-4.7,32.38-6.15,9.76-1.47,18.3-2.31,25.41-2.51,7.34-.21,13.27.28,17.61,1.44,4.91,1.32,8.01,3.57,9.2,6.69s.39,6.86-2.38,11.12c-2.45,3.76-6.53,8.08-12.14,12.83-5.42,4.6-12.34,9.68-20.59,15.1-8.13,5.35-17.62,11.09-28.21,17.05-10.57,5.96-22.32,12.19-34.93,18.53-12.72,6.39-26.42,12.95-40.74,19.49-14.57,6.65-29.91,13.36-45.62,19.92-16.11,6.74-32.78,13.41-49.56,19.84-16.78,6.43-33.65,12.6-50.13,18.35-16.07,5.6-31.97,10.86-47.26,15.64-15.02,4.7-29.6,8.97-43.33,12.71-13.62,3.71-26.53,6.92-38.37,9.55-11.86,2.63-22.75,4.7-32.38,6.15-9.76,1.47-18.3,2.31-25.41,2.51-1.1.03-2.18.05-3.21.05Z"/>
</svg>